<svg id="10f4ae57-6b97-4ba0-a6ec-a558de38a53f" data-name="Bundle" xmlns="http://www.w3.org/2000/svg" viewBox="0 0 146 264.01"><defs><style>.\37 c802330-f6a7-43ad-80b2-254af91b23b8{fill:#ffb769;}.\34 8fbb82a-a1b9-43dc-99f5-792345ca04ec{fill:#6ec889;}.\36 648a456-6583-4232-96e8-f3916e748cec{fill:#03a171;}.a0b3b322-d47d-4660-b1ad-2fd23bd64f39{fill:#32b27b;}.ab95c110-f10e-4df4-913b-9a9761da413f{fill:#68655e;}.\34 18599bb-b342-4989-b104-20c2dc4ce151{fill:#444;}.e7467c64-5384-4640-821e-0f8b89fab0fe{fill:#fa5;}.c9c30c0a-72d1-4eee-9e66-151983658363{fill:#ff9b40;}.\34 1f1966d-3b9a-451c-942e-40a4b30b3885{fill:#ffc183;}.ce314004-ea07-4c84-b055-685b9cb5fd6f{fill:#4bbb81;}.\37 1516f9c-b822-4a09-b54e-a7f75792ac30{fill:#1dab77;}.\32 2c1dbae-7308-431f-af06-498573a7132e{fill:#8ad38f;}.\31 6c77c36-f3d9-4ad8-abc1-67a0656222a5{fill:#7f7f7f;}.b3b14b2d-e1ef-4f14-988c-1d147099ecd1{fill:#7fd999;}</style></defs><title>Bundle</title><path class="7c802330-f6a7-43ad-80b2-254af91b23b8" d="M346.14,187l79.23,109.29L421,422.37l-31.5,15.5-58.5,2.5-39.5-11.5-10.27-124Z" transform="translate(-280.96 -179.08)"/><path class="48fbb82a-a1b9-43dc-99f5-792345ca04ec" d="M354.32,296.83l42.37,12.28L426.47,298,422,422.09,393.8,440l-66.64,3-39.44-12.36L281,304.21l36.79,5.41Z" transform="translate(-280.96 -179.08)"/><path class="6648a456-6583-4232-96e8-f3916e748cec" d="M397.51,311.3l-3.33,128.18,29.53-16.75L426.13,299Z" transform="translate(-280.96 -179.08)"/><path class="a0b3b322-d47d-4660-b1ad-2fd23bd64f39" d="M318.84,310.95l11.74,131.72,63.22-2.8,4.43-127.75-43.86-14.66Z" transform="translate(-280.96 -179.08)"/><path class="ab95c110-f10e-4df4-913b-9a9761da413f" d="M328,217.76L357,216.5l7.18-4.36L349,179.08,340.82,186Z" transform="translate(-280.96 -179.08)"/><path class="418599bb-b342-4989-b104-20c2dc4ce151" d="M357,216.5l7.18-4.36L349,179.08l-2.19,2.12Z" transform="translate(-280.96 -179.08)"/><path class="ab95c110-f10e-4df4-913b-9a9761da413f" d="M397,307.21l25.87-10.56" transform="translate(-280.96 -179.08)"/><path class="e7467c64-5384-4640-821e-0f8b89fab0fe" d="M355,296.62l7-4-11.25-71.94-10.78-3.2,17.81-1L416.42,301l-19.68,11.53Z" transform="translate(-280.96 -179.08)"/><path class="c9c30c0a-72d1-4eee-9e66-151983658363" d="M426.44,298l-62.8-87.67-5.77,6.09L402,301.36,397.74,309l-40.48-12.51,40.38,17.14Z" transform="translate(-280.96 -179.08)"/><path class="41f1966d-3b9a-451c-942e-40a4b30b3885" d="M331.33,217.61l-3.06,0-47,86.71q36.68,6.27,36.83,5.5t-30.48-7.34Z" transform="translate(-280.96 -179.08)"/><path class="ce314004-ea07-4c84-b055-685b9cb5fd6f" d="M330.89,442.45l58.38-2.61-48.79-3.46Q321.31,309.77,318.76,309.9T330.89,442.45Z" transform="translate(-280.96 -179.08)"/><path class="71516f9c-b822-4a09-b54e-a7f75792ac30" d="M427,298.1l-28.5,15.44L394,439.21l14.89-125.73Z" transform="translate(-280.96 -179.08)"/><path class="22c1dbae-7308-431f-af06-498573a7132e" d="M315.29,310.67q-0.09.73-29-2.25l7.46,124.22-5.5-1.92-6.92-126Q315.39,309.88,315.29,310.67Z" transform="translate(-280.96 -179.08)"/><path class="16c77c36-f3d9-4ad8-abc1-67a0656222a5" d="M328.41,217.58l12.31-31.34-8.78,31.36Z" transform="translate(-280.96 -179.08)"/><g id="63f21532-8a60-4382-bb68-59307db6bef2" data-name="Note"><path class="b3b14b2d-e1ef-4f14-988c-1d147099ecd1" d="M369.22,330a2.35,2.35,0,0,1,2.42,2.47,2.48,2.48,0,0,1-2.47,2.42h-1a8.05,8.05,0,0,1,3.8,7c0,4.89-3.34,7.71-8.43,7.65l-11.81-.12a2.44,2.44,0,1,1,0-4.89l10.18,0.1c3.46,0,5.31-1.58,5.34-4.63,0-2.85-2-4.91-5.45-4.94l-10.18-.1a2.48,2.48,0,0,1-2.42-2.47,2.35,2.35,0,0,1,2.47-2.42l17.51,0.18V330Z" transform="translate(-280.96 -179.08)"/><path class="b3b14b2d-e1ef-4f14-988c-1d147099ecd1" d="M360,354.6h0a11.52,11.52,0,0,1,11.49,11.93A11.31,11.31,0,0,1,360,378h0c-6.31-.06-11.35-5-11.28-11.93A11.26,11.26,0,0,1,360,354.6Zm-0.18,18.33h0a6.87,6.87,0,0,0,7.19-6.65c0-4.07-3.19-6.55-6.86-6.59h0a6.87,6.87,0,0,0-7.19,6.65A6.65,6.65,0,0,0,359.83,372.92Z" transform="translate(-280.96 -179.08)"/><path class="b3b14b2d-e1ef-4f14-988c-1d147099ecd1" d="M355,384.07l11.61,0.12v-0.81a2.24,2.24,0,1,1,4.48,0v0.81l3.67,0a2.44,2.44,0,1,1,0,4.89l-3.67,0,0,3.87a2.24,2.24,0,1,1-4.48,0l0-3.87L355.8,389c-2,0-2.66,1-2.67,2.62a7.2,7.2,0,0,0,.19,1.22,1.92,1.92,0,0,1-2.06,2,2.45,2.45,0,0,1-2-1.45,8.78,8.78,0,0,1-.58-3.47C348.49,386.66,350.15,384,355,384.07Z" transform="translate(-280.96 -179.08)"/><path class="b3b14b2d-e1ef-4f14-988c-1d147099ecd1" d="M348.26,409.46a11,11,0,0,1,11.52-11.08h0c6.31,0.06,11.36,4.59,11.29,10.91-0.07,6.92-5.81,10.33-10.9,10.28a2.35,2.35,0,0,1-2.42-2.47l0.14-13.85c-3.67.57-5.53,3-5.56,6.26a9.21,9.21,0,0,0,1.78,5.31,2.18,2.18,0,0,1,.39,1.23,1.92,1.92,0,0,1-2.06,2,2.31,2.31,0,0,1-1.62-.63A12,12,0,0,1,348.26,409.46Zm12.78,5c3.26-.37,5.72-2.18,5.76-5.44,0-3.05-2.39-5.32-5.64-5.76Z" transform="translate(-280.96 -179.08)"/></g></svg>
